<svg id="레이어_1" data-name="레이어 1" xmlns="http://www.w3.org/2000/svg" viewBox="0 0 18.16 20.85"><defs><style>.cls-1{fill:#545555;}</style></defs><title>알림</title><path id="bell-regular" class="cls-1" d="M17.82,14.78c-.79-.84-2.25-2.11-2.25-6.26a6.41,6.41,0,0,0-5.19-6.29V1.39a1.3,1.3,0,0,0-2.6-.18v1A6.41,6.41,0,0,0,2.6,8.52c0,4.15-1.47,5.42-2.25,6.26a1.26,1.26,0,0,0-.35.88A1.3,1.3,0,0,0,1.3,17H16.86a1.3,1.3,0,0,0,1.3-1.3,1.26,1.26,0,0,0-.35-.88ZM2.74,15c.86-1.13,1.8-3,1.8-6.46v0a4.55,4.55,0,1,1,9.09-.13v.16c0,3.45.94,5.33,1.8,6.46Zm6.34,5.84a2.61,2.61,0,0,0,2.6-2.6H6.49A2.6,2.6,0,0,0,9.08,20.85Z"/></svg>