<svg id="레이어_1" data-name="레이어 1" xmlns="http://www.w3.org/2000/svg" viewBox="0 0 20 20"><defs><style>.cls-1{fill:#fff;}</style></defs><title>대지 1</title><path id="envelope-regular" class="cls-1" d="M16.59,3.92H3.41A1.52,1.52,0,0,0,1.89,5.44h0v9.12a1.52,1.52,0,0,0,1.52,1.52H16.59a1.52,1.52,0,0,0,1.52-1.52h0V5.44a1.52,1.52,0,0,0-1.52-1.52Zm0,1.52V6.73c-.71.58-1.84,1.48-4.26,3.37-.54.42-1.6,1.43-2.33,1.42s-1.79-1-2.33-1.42C5.25,8.2,4.12,7.3,3.41,6.73V5.44ZM3.41,14.56V8.68L6.74,11.3c.69.55,1.9,1.75,3.26,1.74s2.55-1.18,3.27-1.74c1.57-1.23,2.6-2,3.32-2.62v5.88Z"/></svg>