<svg id="레이어_1" data-name="레이어 1" xmlns="http://www.w3.org/2000/svg" viewBox="0 0 17.23 17.31"><defs><style>.cls-1{fill:rgb(85,85,85);}</style></defs><title>여행경로</title><path id="경로" class="cls-1" d="M3,17.07c-.29-.34-.86-1-1.43-1.81A7,7,0,0,1,0,11.9a3.25,3.25,0,0,1,6.49,0,6.93,6.93,0,0,1-1.61,3.36c-.57.79-1.14,1.47-1.43,1.81l-.2.24Zm.2-6.22a1,1,0,1,0,1,1.05h0a1,1,0,0,0-1-1.05Zm1.37,6.44L5,16.85c.44-.56.85-1.11,1.19-1.63l.08-.13H14A1,1,0,0,0,14,13H10.76a3.25,3.25,0,1,1-.11-6.49h1.59a6.59,6.59,0,0,1-1.5-3.2,3.25,3.25,0,1,1,6.49-.11V3.3a7.12,7.12,0,0,1-1.62,3.37A23.63,23.63,0,0,1,14.07,8.6L14,8.7H10.76a1,1,0,1,0,0,2.1H14a3.25,3.25,0,0,1,0,6.49ZM14,2.26a1.05,1.05,0,1,0,1,1.05h0a1,1,0,0,0-1-1.05Z"/></svg>