<svg id="레이어_1" data-name="레이어 1" xmlns="http://www.w3.org/2000/svg" viewBox="0 0 15.24 18.75"><defs><style>.cls-1{fill:rgb(85,85,85);}</style></defs><title>검색</title><path id="액션제주" class="cls-1" d="M13.82,3.2A7.5,7.5,0,0,0,8.77.09,7,7,0,0,0,7.65,0,7.7,7.7,0,0,0,.1,6.4,7.62,7.62,0,0,0,5,14.75a1.2,1.2,0,0,1,.79.7,1.15,1.15,0,0,1-.09,1l-.15.28c-.23.43-.49.91-.91,1.67a.23.23,0,0,0,0,.24.29.29,0,0,0,.23.12A.34.34,0,0,0,5,18.7l7-4.82a7.62,7.62,0,0,0,1.94-10.6l-.07-.09Zm-6.2,7.4A3,3,0,0,1,5.12,6a.23.23,0,0,1,.2-.13.27.27,0,0,1,.25.2A5.39,5.39,0,0,0,9.66,9.79a2.91,2.91,0,0,1-2,.8Z"/></svg>