<svg id="레이어_1" data-name="레이어 1" xmlns="http://www.w3.org/2000/svg" viewBox="0 0 35 38.86"><defs><style>.cls-1{fill:#fff;}.cls-2{fill:#31b8ba;}</style></defs><title>마커 - 미선택</title><path class="cls-1" d="M17.55,0A13.6,13.6,0,0,1,22,.55a17.12,17.12,0,0,1,4.25,1.76,17.67,17.67,0,0,1,6,5.74A16.67,16.67,0,0,1,34,11.47a16.46,16.46,0,0,1,.82,3.23,15.41,15.41,0,0,1,.07,4.84c-.12.67-.2,1.35-.37,2A17.45,17.45,0,0,1,32,27a18.39,18.39,0,0,1-3,3.34,14.46,14.46,0,0,1-3.22,2.2c-.91.45-1.87.82-2.8,1.23a10.34,10.34,0,0,0-2.78,1.84,16.06,16.06,0,0,0-2.56,3c-.2.3-.24.3-.45,0-.61-.77-1.2-1.56-1.84-2.31a11.06,11.06,0,0,0-2.47-2,17.74,17.74,0,0,0-2.5-1.07,19,19,0,0,1-3.5-2,16.62,16.62,0,0,1-3.69-3.75,16.71,16.71,0,0,1-2.17-4,14.94,14.94,0,0,1-1-4.16A29.65,29.65,0,0,1,0,15.57a15.87,15.87,0,0,1,.58-3A15.48,15.48,0,0,1,2.9,7.67,17.4,17.4,0,0,1,12.33.73,15.12,15.12,0,0,1,17.55,0Zm-.34,24.55h-2a.48.48,0,0,0-.52.47.49.49,0,0,0,.49.48h8.17a.49.49,0,0,0,.48-.49.48.48,0,0,0-.52-.46H21.38a.32.32,0,0,1,.06-.11.28.28,0,0,1,.1-.09,5.59,5.59,0,0,0,1.66-1.44.42.42,0,0,1,.35-.1,2,2,0,0,0,2.11-1,3.05,3.05,0,0,0,.21-1.55A1.24,1.24,0,0,0,25,19.05a1.41,1.41,0,0,1-.83-.33s-.16,0-.24,0H14.7c-.44,0-.61.15-.58.59a9.73,9.73,0,0,0,.2,1.52A5.62,5.62,0,0,0,17,24.37C17,24.41,17.08,24.47,17.21,24.58Zm-3.5-12c.06-.31.12-.56.17-.82L14.24,10a.31.31,0,0,1,.38-.29c.28,0,.56,0,.84,0s.58-.18.59-.47-.22-.5-.58-.5H14.21c-.6,0-.72.11-.84.69-.2,1-.43,1.91-.62,2.87-.05.23-.15.28-.36.28H9.79c-.46,0-.71.17-.72.49s.22.49.69.5c.19,0,.26.07.27.26,0,.45.08.89.13,1.34.16,1.42.33,2.85.49,4.27.14,1.23.26,2.45.4,3.67a.54.54,0,0,0,.62.57h2.41c.38,0,.63-.22.63-.5s-.24-.5-.62-.5H12.27c-.21,0-.3-.07-.32-.29,0-.42-.08-.85-.13-1.28-.13-1.18-.27-2.36-.4-3.55S11.16,15.19,11,14c0-.35,0-.38.35-.38h5.46c.14,0,.19.06.18.21-.06.42-.11.85-.15,1.27-.1.9-.2,1.8-.27,2.7,0,.34.13.54.39.56a.5.5,0,0,0,.56-.49q.23-1.87.42-3.75c.05-.43,0-.43.49-.51a.54.54,0,0,0,.49-.53c0-.28-.22-.45-.56-.46H14.13A3.47,3.47,0,0,1,13.71,12.58Zm7.39,1a2,2,0,0,0-.48-1.25.49.49,0,1,0-.8.56,2.7,2.7,0,0,1,.2.31.88.88,0,0,1-.26,1.08,2.58,2.58,0,0,0-.9,2.55,2.26,2.26,0,0,0,1,1.42.49.49,0,0,0,.77-.3c.06-.26-.1-.42-.28-.56a1.35,1.35,0,0,1-.56-1.13A1.64,1.64,0,0,1,20.4,15,2.05,2.05,0,0,0,21.1,13.6Zm-.3,2.79a2,2,0,0,0,1.5,1.93c.35.11.65,0,.74-.29s-.07-.52-.43-.64a1.19,1.19,0,0,1-.75-.62,1.07,1.07,0,0,1,.29-1.19c.13-.17.29-.31.41-.49a.5.5,0,0,0-.09-.68.45.45,0,0,0-.65.08,6.28,6.28,0,0,0-.59.67A1.78,1.78,0,0,0,20.8,16.39Z"/><path class="cls-2" d="M17.21,24.58c-.13-.11-.19-.17-.25-.21a5.62,5.62,0,0,1-2.64-3.58,9.73,9.73,0,0,1-.2-1.52c0-.44.14-.59.58-.59h9.18c.08,0,.2,0,.24,0a1.41,1.41,0,0,0,.83.33,1.24,1.24,0,0,1,.92,1.23,3.05,3.05,0,0,1-.21,1.55,2,2,0,0,1-2.11,1,.42.42,0,0,0-.35.1,5.59,5.59,0,0,1-1.66,1.44.28.28,0,0,0-.1.09.32.32,0,0,0-.06.11h1.93a.48.48,0,0,1,.52.46.49.49,0,0,1-.48.49H15.18a.49.49,0,0,1-.49-.48.48.48,0,0,1,.52-.47h2Zm-2.12-4.91a5,5,0,0,0,1.32,3,3.69,3.69,0,0,0,3.77,1.18A4.63,4.63,0,0,0,23.4,20c0-.27,0-.33-.31-.33H15.42C15.31,19.63,15.21,19.66,15.09,19.67Zm8.75,2.24a2.56,2.56,0,0,0,.37-.05,1.29,1.29,0,0,0,.65-1.72.52.52,0,0,0-.38-.16s-.13.16-.16.26c-.1.34-.17.7-.27,1S23.92,21.66,23.84,21.91Z"/><path class="cls-2" d="M13.71,12.58a3.47,3.47,0,0,0,.42,0h4.25c.34,0,.54.18.56.46a.54.54,0,0,1-.49.53c-.45.08-.44.08-.49.51q-.2,1.88-.42,3.75a.5.5,0,0,1-.56.49c-.26,0-.43-.22-.39-.56.07-.9.17-1.8.27-2.7,0-.42.09-.85.15-1.27,0-.15,0-.21-.18-.21H11.37c-.37,0-.38,0-.35.38.14,1.2.26,2.41.4,3.61s.27,2.37.4,3.55c0,.43.1.86.13,1.28,0,.22.11.3.32.29h1.82c.38,0,.61.19.62.5s-.25.49-.63.5H11.67a.54.54,0,0,1-.62-.57c-.14-1.22-.26-2.44-.4-3.67-.16-1.42-.33-2.85-.49-4.27-.05-.45-.1-.89-.13-1.34,0-.19-.08-.26-.27-.26-.47,0-.7-.18-.69-.5s.26-.49.72-.49h2.6c.21,0,.31,0,.36-.28.19-1,.42-1.91.62-2.87.12-.58.24-.69.84-.69h1.26c.36,0,.58.2.58.5s-.23.47-.59.47-.56,0-.84,0a.31.31,0,0,0-.38.29l-.36,1.72C13.83,12,13.77,12.27,13.71,12.58Z"/><path class="cls-2" d="M21.1,13.6A2.05,2.05,0,0,1,20.4,15a1.64,1.64,0,0,0-.61,1.24,1.35,1.35,0,0,0,.56,1.13c.18.14.34.3.28.56a.49.49,0,0,1-.77.3,2.26,2.26,0,0,1-1-1.42,2.58,2.58,0,0,1,.9-2.55A.88.88,0,0,0,20,13.22a2.7,2.7,0,0,0-.2-.31.49.49,0,1,1,.8-.56A2,2,0,0,1,21.1,13.6Z"/><path class="cls-2" d="M20.8,16.39a1.78,1.78,0,0,1,.43-1.23,6.28,6.28,0,0,1,.59-.67.45.45,0,0,1,.65-.08.5.5,0,0,1,.09.68c-.12.18-.28.32-.41.49a1.07,1.07,0,0,0-.29,1.19,1.19,1.19,0,0,0,.75.62c.36.12.51.35.43.64s-.39.4-.74.29A2,2,0,0,1,20.8,16.39Z"/><path class="cls-1" d="M15.09,19.67c.12,0,.22,0,.33,0h7.67c.26,0,.35.06.31.33a4.63,4.63,0,0,1-3.22,3.93,3.69,3.69,0,0,1-3.77-1.18A5,5,0,0,1,15.09,19.67Z"/><path class="cls-1" d="M23.84,21.91c.08-.25.16-.43.21-.63s.17-.7.27-1c0-.1.12-.26.16-.26a.52.52,0,0,1,.38.16,1.29,1.29,0,0,1-.65,1.72A2.56,2.56,0,0,1,23.84,21.91Z"/><path class="cls-2" d="M18.31,1a14,14,0,0,1,3.47.51,16.68,16.68,0,0,1,4,1.67,15.9,15.9,0,0,1,2.93,2.17,16.72,16.72,0,0,1,2.73,3.24A15.93,15.93,0,0,1,33,11.82a14.73,14.73,0,0,1,.77,3,14.51,14.51,0,0,1,.07,4.53l-.09.6c-.08.46-.15.9-.25,1.32a16.66,16.66,0,0,1-2.32,5.15,17,17,0,0,1-2.79,3.15,13.28,13.28,0,0,1-3,2.05c-.56.28-1.13.52-1.74.78l-1,.44a11.17,11.17,0,0,0-3.06,2,17,17,0,0,0-2.15,2.4c-.4-.52-.82-1.05-1.26-1.57a12.15,12.15,0,0,0-2.68-2.23,8.88,8.88,0,0,0-1.82-.83c-.28-.1-.56-.19-.83-.31a18.07,18.07,0,0,1-3.31-1.91A15.68,15.68,0,0,1,4.07,26.9a15.6,15.6,0,0,1-2-3.75,13.89,13.89,0,0,1-.93-3.87v-.17A31,31,0,0,1,1,15.64a14.62,14.62,0,0,1,.5-2.56l.05-.21A14.73,14.73,0,0,1,3.72,8.23,16.51,16.51,0,0,1,8.93,3.31a16.29,16.29,0,0,1,3.68-1.62A14.57,14.57,0,0,1,16.87,1l.63,0h.13c.22,0,.45,0,.68,0m0-1c-.26,0-.51,0-.76,0l-.68,0a15.67,15.67,0,0,0-4.54.72A17.4,17.4,0,0,0,2.9,7.67,15.48,15.48,0,0,0,.62,12.62a15.87,15.87,0,0,0-.58,3A29.65,29.65,0,0,0,.1,19.34a14.94,14.94,0,0,0,1,4.16,16.71,16.71,0,0,0,2.17,4A16.62,16.62,0,0,0,7,31.23a19,19,0,0,0,3.5,2A17.74,17.74,0,0,1,13,34.31a11.06,11.06,0,0,1,2.47,2c.64.75,1.23,1.54,1.84,2.31.11.13.17.2.23.2s.12-.08.22-.23a16.06,16.06,0,0,1,2.56-3,10.34,10.34,0,0,1,2.78-1.84c.93-.41,1.89-.78,2.8-1.23a14.46,14.46,0,0,0,3.22-2.2A18.39,18.39,0,0,0,32,27a17.45,17.45,0,0,0,2.45-5.46c.17-.65.25-1.33.37-2a15.41,15.41,0,0,0-.07-4.84A16.46,16.46,0,0,0,34,11.47a16.67,16.67,0,0,0-1.67-3.42,17.67,17.67,0,0,0-6-5.74A17.12,17.12,0,0,0,22,.55,14.64,14.64,0,0,0,18.31,0Z"/></svg>