<svg id="레이어_1" data-name="레이어 1" xmlns="http://www.w3.org/2000/svg" viewBox="0 0 18.33 19.15"><defs><style>.cls-1{fill:#545555;}</style></defs><title>설정</title><path id="cog-solid" class="cls-1" d="M18.1,11.88l-1.65-1a7.26,7.26,0,0,0,0-2.71l1.65-1a.45.45,0,0,0,.21-.54A9.43,9.43,0,0,0,16.2,3.08.46.46,0,0,0,15.63,3L14,3.94a7.15,7.15,0,0,0-2.34-1.36V.68a.48.48,0,0,0-.37-.45,9.65,9.65,0,0,0-4.21,0,.47.47,0,0,0-.37.45v1.9A7.63,7.63,0,0,0,4.35,3.94L2.7,3a.46.46,0,0,0-.57.09A9.56,9.56,0,0,0,0,6.73a.47.47,0,0,0,.21.54l1.65,1a7.26,7.26,0,0,0,0,2.71l-1.65,1a.48.48,0,0,0-.21.54,9.8,9.8,0,0,0,2.11,3.66.47.47,0,0,0,.57.08l1.65-.95A7.19,7.19,0,0,0,6.7,16.57v1.9a.46.46,0,0,0,.36.45,9.69,9.69,0,0,0,4.22,0,.46.46,0,0,0,.36-.45v-1.9A7.68,7.68,0,0,0,14,15.21l1.64.95a.45.45,0,0,0,.57-.08,9.69,9.69,0,0,0,2.12-3.66A.48.48,0,0,0,18.1,11.88Zm-8.94.79a3.09,3.09,0,1,1,3.1-3.09A3.1,3.1,0,0,1,9.16,12.67Z"/></svg>